<?xml version="1.0" encoding="UTF-8" standalone="no"?><!DOCTYPE svg PUBLIC "-//W3C//DTD SVG 1.1//EN" "http://www.w3.org/Graphics/SVG/1.1/DTD/svg11.dtd"><svg width="100%" height="100%" viewBox="0 0 840 596" version="1.1" xmlns="http://www.w3.org/2000/svg" xmlns:xlink="http://www.w3.org/1999/xlink" xml:space="preserve" xmlns:serif="http://www.serif.com/" style="fill-rule:evenodd;clip-rule:evenodd;stroke-linecap:round;stroke-linejoin:round;stroke-miterlimit:1.5;"><rect x="0" y="0" width="839.055" height="839.055" style="fill:#e9d6c7;stroke:#fff;stroke-width:0.24px;"/><circle cx="348.648" cy="141.12" r="20.156" style="fill:none;stroke:#68907a;stroke-width:1.5px;"/><circle cx="441.771" cy="179.884" r="11.88" style="fill:none;stroke:#aa5d3c;stroke-width:1.5px;"/><circle cx="541.608" cy="150.364" r="11.88" style="fill:none;stroke:#68907a;stroke-width:1.5px;"/><circle cx="375.942" cy="73.324" r="11.88" style="fill:none;stroke:#68907a;stroke-width:1.5px;"/><circle cx="456.342" cy="97.564" r="11.88" style="fill:none;stroke:#68907a;stroke-width:1.5px;"/><circle cx="546.942" cy="73.324" r="11.88" style="fill:none;stroke:#68907a;stroke-width:1.5px;"/><circle cx="523.368" cy="155.884" r="6.36" style="fill:none;stroke:#68907a;stroke-width:1.5px;"/><circle cx="112.835" cy="407.648" r="11.88" style="fill:none;stroke:#9b3b10;stroke-width:1.5px;"/><circle cx="35.315" cy="310.448" r="11.88" style="fill:none;stroke:#68907a;stroke-width:1px;"/><circle cx="72.035" cy="459.008" r="11.88" style="fill:none;stroke:#68907a;stroke-width:1.5px;"/><circle cx="72.035" cy="435.248" r="11.88" style="fill:none;stroke:#68907a;stroke-width:1.5px;"/><circle cx="35.555" cy="510.848" r="11.88" style="fill:none;stroke:#68907a;stroke-width:1.5px;"/><circle cx="112.835" cy="544.928" r="11.88" style="fill:none;stroke:#68907a;stroke-width:1.5px;"/><ellipse cx="130.715" cy="546.008" rx="6" ry="6.24" style="fill:none;stroke:#9b3b1e;stroke-width:1.5px;"/><ellipse cx="347.915" cy="154.328" rx="6" ry="6.24" style="fill:none;stroke:#9b3b1e;stroke-width:1.5px;"/><ellipse cx="552.942" cy="73.324" rx="6" ry="6.24" style="fill:none;stroke:#9b3b1e;stroke-width:1.5px;"/><ellipse cx="732.395" cy="184.568" rx="6" ry="6.24" style="fill:none;stroke:#9b3b1e;stroke-width:1.5px;"/><ellipse cx="797.195" cy="155.768" rx="6" ry="6.24" style="fill:none;stroke:#9b3b1e;stroke-width:1.5px;"/><ellipse cx="66.635" cy="458.888" rx="6" ry="6.24" style="fill:none;stroke:#9b3b1e;stroke-width:1.5px;"/><circle cx="72.035" cy="594.848" r="11.88" style="fill:none;stroke:#68907a;stroke-width:1.5px;"/><circle cx="636.515" cy="96.848" r="11.88" style="fill:none;stroke:#68907a;stroke-width:1.5px;"/><circle cx="714.515" cy="73.084" r="11.88" style="fill:none;stroke:#68907a;stroke-width:1.5px;"/><circle cx="685.955" cy="150.128" r="11.88" style="fill:none;stroke:#68907a;stroke-width:1.5px;"/><circle cx="779.315" cy="150.128" r="11.88" style="fill:none;stroke:#68907a;stroke-width:1.5px;"/><circle cx="827.175" cy="96.844" r="11.88" style="fill:none;stroke:#68907a;stroke-width:1.5px;"/><g><circle cx="100.955" cy="141.12" r="195.651" style="fill:#68907a;stroke:#68907a;stroke-width:1px;"/><circle cx="100.955" cy="141.12" r="165.651" style="fill:#c9a101;stroke:#c9a101;stroke-width:1px;"/><circle cx="100.955" cy="141.12" r="148.371" style="fill:#b14312;stroke:#9b3b1e;stroke-width:1px;"/><circle cx="100.955" cy="141.12" r="118.574" style="fill:#e9d6c7;stroke:#e9d6c7;stroke-width:1px;"/></g><g><circle cx="92.568" cy="84.964" r="56.156" style="fill:#aa5d3c;stroke:#aa5d3c;stroke-width:1px;"/><circle cx="60.271" cy="84.964" r="24.956" style="fill:#697e50;stroke:#697e50;stroke-width:1px;"/></g><path d="M47.04,0l0,839.055" style="fill:none;stroke:#34483d;stroke-width:1.5px;"/><path d="M60.72,0l0,839.055" style="fill:none;stroke:#9b3b10;stroke-width:1.5px;"/><path d="M100.955,307.971l0,531.084" style="fill:none;stroke:#8a6e00;stroke-width:1.5px;"/><path d="M558.395,0l0,191.764" style="fill:none;stroke:#8a6e00;stroke-width:1px;"/><path d="M566.555,0l0,191.764" style="fill:none;stroke:#8a6e00;stroke-width:1px;"/><path d="M124.715,336.771l0,502.284" style="fill:none;stroke:#67985a;stroke-width:1.5px;"/><path d="M136.715,254.88l0,584.175" style="fill:none;stroke:#8a6e00;stroke-width:1.5px;"/><path d="M148.724,84.964l690.331,0" style="fill:none;stroke:#9b3b10;stroke-width:1.5px;"/><g><path d="M290.329,191.764l582.003,0" style="fill:none;stroke:#67985a;stroke-width:1.5px;"/></g><path d="M265.646,162.244l590.27,0" style="fill:none;stroke:#34483d;stroke-width:1.5px;"/></svg>